Coordinates
version=1
nRows=14
nColumns=40
inDegrees=yes

Units are S.I. units (second, meters, Newtons, ...)
Angles are in degrees.

endheader
time	pelvis_tilt	pelvis_list	pelvis_rotation	pelvis_tx	pelvis_ty	pelvis_tz	hip_flexion_r	hip_adduction_r	hip_rotation_r	knee_angle_r	knee_angle_r_beta	ankle_angle_r	subtalar_angle_r	mtp_angle_r	hip_flexion_l	hip_adduction_l	hip_rotation_l	knee_angle_l	knee_angle_l_beta	ankle_angle_l	subtalar_angle_l	mtp_angle_l	lumbar_extension	lumbar_bending	lumbar_rotation	arm_flex_r	arm_add_r	arm_rot_r	elbow_flex_r	pro_sup_r	wrist_flex_r	wrist_dev_r	arm_flex_l	arm_add_l	arm_rot_l	elbow_flex_l	pro_sup_l	wrist_flex_l	wrist_dev_l
     51.39342857	     -5.17299136	     -4.12706394	     -0.75229497	      0.81169241	      0.93223575	      0.43040332	     32.71707630	     -4.99390936	     -6.63516771	     57.83137096	     57.83137096	      2.33541130	    -15.76529215	      2.09926321	     13.31400674	     -3.64707184	     -6.49019924	     19.76879148	     19.76879148	     14.22536109	     -7.70738980	      0.60530155	     -9.88971408	      6.74300103	      2.28766972	      1.08780064	    -12.82127021	     -7.57491156	     26.47024622	     46.64006216	      0.00000000	      0.00000000	     22.12474022	    -16.65665305	     -6.76777008	     50.71175038	     46.70748802	      0.00000000	      0.00000000
     51.40685714	     -5.18347637	     -4.16530612	     -1.06249495	      0.81051224	      0.93246972	      0.43114381	     33.08198618	     -4.69963001	     -6.81398927	     54.90061715	     54.90061715	      1.89914703	    -15.41538080	      0.41960974	     12.53089150	     -3.74802079	     -6.88827093	     19.07790584	     19.07790584	     13.96244252	     -7.52352836	     -0.63403292	    -10.09484003	      6.77483260	      1.88994557	     -0.61746140	    -12.78255747	     -6.78613543	     25.76791561	     46.58078128	      0.00000000	      0.00000000	     22.07340050	    -17.25630957	     -8.48931859	     54.21684670	     46.91713213	      0.00000000	      0.00000000
     51.42028571	     -5.36074675	     -4.21017108	     -1.31333973	      0.80923267	      0.93234665	      0.43200910	     33.53960706	     -4.40790021	     -7.04159795	     51.78722040	     51.78722040	      2.10846347	    -14.58484596	      0.58464356	     12.06405431	     -3.84312573	     -7.09865336	     18.64495888	     18.64495888	     14.18869576	     -7.41469654	     -0.70824837	    -10.01986793	      6.86538471	      1.65100096	     -2.42789933	    -12.66632991	     -6.74454329	     25.13466235	     46.58702775	      0.00000000	      0.00000000	     22.96264939	    -17.93629013	     -8.80163951	     55.00530467	     46.96129883	      0.00000000	      0.00000000
     51.43371429	     -5.41871763	     -4.20619116	     -1.62011533	      0.80812135	      0.93235604	      0.43296773	     33.66488892	     -4.14842132	     -7.28687237	     48.30432113	     48.30432113	      2.27620589	    -13.56508210	      0.63664068	     11.39651472	     -3.89329180	     -7.42481540	     18.11768848	     18.11768848	     14.36183063	     -7.20231744	     -0.82865472	    -10.08523380	      6.90171839	      1.68315819	     -4.29270359	    -12.61108674	     -6.74632383	     24.58444262	     46.59273278	      0.00000000	      0.00000000	     23.82150417	    -18.39673913	     -9.14986241	     56.25370090	     47.01421487	      0.00000000	      0.00000000
     51.44714286	     -5.41880087	     -4.15012236	     -1.95944878	      0.80715190	      0.93232260	      0.43408943	     33.54558445	     -3.92222204	     -7.56714703	     44.52623229	     44.52623229	      2.38670667	    -12.29144238	      0.45550528	     10.62240156	     -3.89424629	     -7.81586934	     17.53948933	     17.53948933	     14.55169350	     -6.92427271	     -1.08609852	    -10.24067158	      6.85322516	      1.82014581	     -6.19940906	    -12.56355484	     -6.84046724	     24.26232225	     46.59552719	      0.00000000	      0.00000000	     24.52646126	    -18.75124251	     -9.57095625	     57.99888423	     47.07857111	      0.00000000	      0.00000000
     51.46057143	     -5.52679555	     -3.99686641	     -2.31592436	      0.80620881	      0.93186665	      0.43535209	     33.36388126	     -3.75224424	     -7.86248487	     40.47031503	     40.47031503	      1.95097937	    -11.14108882	     -1.37747785	      9.98501910	     -3.80684033	     -8.30290519	     16.96898626	     16.96898626	     14.45576217	     -6.72636528	     -2.04149554	    -10.32698774	      6.68001719	      1.57861527	     -8.17488452	    -12.39774887	     -7.45198901	     25.18764597	     46.58390749	      0.00000000	      0.00000000	     24.26286112	    -19.46987410	    -10.61820186	     61.53422399	     47.21774398	      0.00000000	      0.00000000
     51.47400000	     -5.59492807	     -3.91248622	     -2.63459373	      0.80541804	      0.93148350	      0.43668445	     32.95684392	     -3.48828120	     -8.29178153	     36.29253465	     36.29253465	      2.07825315	     -9.58186372	     -1.18693091	      9.34987007	     -3.76637288	     -8.56360605	     16.52298926	     16.52298926	     14.65153086	     -6.66840020	     -2.21931792	    -10.33895409	      6.62408969	      1.49487216	     -9.64098094	    -12.31745500	     -7.54094979	     24.79559044	     46.59385236	      0.00000000	      0.00000000	     24.89608501	    -20.01249629	    -10.96769369	     62.44747664	     47.26360425	      0.00000000	      0.00000000
     51.48742857	     -5.64006133	     -3.72216703	     -2.98944709	      0.80490447	      0.93092618	      0.43807057	     32.37705931	     -3.35063340	     -8.90390098	     32.07564961	     32.07564961	      2.07261634	     -7.52442343	     -1.53656512	      8.58740101	     -3.59683260	     -8.92832820	     15.90004411	     15.90004411	     14.66259360	     -6.58161213	     -2.88068001	    -10.36347234	      6.44145335	      1.43260691	    -11.18985004	    -12.16492938	     -8.05585249	     24.97326976	     46.61238202	      0.00000000	      0.00000000	     25.02175098	    -20.43672059	    -11.68632607	     64.69238331	     47.36265398	      0.00000000	      0.00000000
     51.50085714	     -5.84348602	     -3.49268072	     -3.35363919	      0.80434841	      0.92997737	      0.43972713	     31.92011324	     -3.07330868	     -9.23728412	     28.00411385	     28.00411385	      2.06934497	     -5.99827727	     -0.86271704	      8.17452379	     -3.42593834	     -9.20550695	     15.62553779	     15.62553779	     14.89809470	     -6.63709814	     -3.06328671	    -10.13153693	      6.19556348	      1.35295883	    -12.35871321	    -11.97196542	     -8.12617163	     24.65250932	     46.62013063	      0.00000000	      0.00000000	     25.55921398	    -21.00469608	    -11.96751742	     65.36649468	     47.40022684	      0.00000000	      0.00000000
     51.51428571	     -5.88137265	     -3.31414560	     -3.68066473	      0.80420080	      0.92918537	      0.44144727	     31.12914282	     -2.78918159	     -9.85450372	     24.08663023	     24.08663023	      2.07420675	     -4.07179485	     -0.06292755	      7.50817280	     -3.28989150	     -9.49668681	     15.25554710	     15.25554710	     15.13350550	     -6.61018379	     -3.28197254	    -10.06128925	      6.00893906	      1.42510285	    -13.50664871	    -11.83788139	     -8.22909662	     24.39388483	     46.62820974	      0.00000000	      0.00000000	     25.98244598	    -21.35565498	    -12.23852222	     66.30134532	     47.44021367	      0.00000000	      0.00000000
     51.52771429	     -5.68731407	     -3.17786641	     -3.97573309	      0.80456645	      0.92857234	      0.44305260	     30.18602067	     -2.67857234	    -11.17556959	     20.98191287	     20.98191287	      3.12537039	     -0.80093888	      2.98674850	      6.38707281	     -3.12687690	     -9.71265362	     14.51934919	     14.51934919	     14.92259238	     -6.72283833	     -4.52672810	    -10.30226294	      5.92549226	      1.20711691	    -14.65285183	    -11.77973149	     -9.25800974	     25.11144401	     46.66635748	      0.00000000	      0.00000000	     25.30023963	    -21.63788342	    -13.41785343	     69.41331508	     47.59051667	      0.00000000	      0.00000000
     51.54114286	     -5.69693246	     -3.01369751	     -4.26227569	      0.80491834	      0.92750899	      0.44501549	     29.42762231	     -2.37093624	    -11.86256933	     18.11987675	     18.11987675	      3.07571848	      0.83802091	      3.92656744	      5.70494639	     -3.00969012	     -9.92473466	     14.23396193	     14.23396193	     15.24281360	     -6.73113846	     -4.69419503	    -10.17174709	      5.78297240	      1.34543365	    -15.49916809	    -11.63216438	     -9.30096662	     24.79462796	     46.67442146	      0.00000000	      0.00000000	     25.68444974	    -21.83138950	    -13.59558391	     70.03539261	     47.61812821	      0.00000000	      0.00000000
     51.55457143	     -5.69473112	     -2.84662311	     -4.53955254	      0.80545059	      0.92638935	      0.44713586	     28.76276882	     -2.11544351	    -12.65275196	     15.96610215	     15.96610215	      3.06699987	      2.41111009	      4.81535428	      5.00509829	     -2.89662277	    -10.15228627	     13.95781650	     13.95781650	     15.55180241	     -6.72261184	     -4.84680780	    -10.05331589	      5.60137136	      1.50767454	    -16.17127599	    -11.47882728	     -9.35159187	     24.60971707	     46.67904252	      0.00000000	      0.00000000	     25.89726843	    -21.92723376	    -13.77953339	     70.74086610	     47.64639744	      0.00000000	      0.00000000
     51.56800000	     -5.59497327	     -2.70913207	     -4.79360932	      0.80630692	      0.92532762	      0.44929038	     28.13855859	     -1.95064626	    -13.56559082	     14.63118867	     14.63118867	      3.28073819	      4.21748643	      5.86205884	      4.15883541	     -2.79698070	    -10.34973641	     13.65414358	     13.65414358	     15.91798479	     -6.66044045	     -4.99256171	     -9.99549970	      5.52238441	      1.63988595	    -16.74409789	    -11.34547580	     -9.46360314	     24.54728310	     46.68375069	      0.00000000	      0.00000000	     25.90411643	    -21.98621312	    -14.12712123	     71.77053814	     47.69366515	      0.00000000	      0.00000000
